<?xml version="1.0" encoding="UTF-8" standalone="no"?>
<!DOCTYPE svg PUBLIC "-//W3C//DTD SVG 1.1//EN"
 "http://www.w3.org/Graphics/SVG/1.1/DTD/svg11.dtd">
<!-- Generated by graphviz version 2.40.1 (20161225.0304)
 -->
<!-- Title: dependencies Pages: 1 -->
<svg width="1951pt" height="360pt"
 viewBox="0.00 0.00 1951.00 360.00" xmlns="http://www.w3.org/2000/svg" xmlns:xlink="http://www.w3.org/1999/xlink">
<g id="graph0" class="graph" transform="scale(1 1) rotate(0) translate(4 356)">
<title>dependencies</title>
<polygon fill="#ffffff" stroke="transparent" points="-4,4 -4,-356 1947,-356 1947,4 -4,4"/>
<text text-anchor="start" x="950.5091" y="-42.4" font-family="sans-serif" font-weight="bold" font-size="14.00" fill="#000000">Legend</text>
<polygon fill="#ffffb3" stroke="transparent" points="737.5,-10 737.5,-30 757.5,-30 757.5,-10 737.5,-10"/>
<text text-anchor="start" x="761.129" y="-15.4" font-family="sans-serif" font-size="14.00" fill="#000000"> &#160;Declarations</text>
<polygon fill="#8dd3c7" stroke="transparent" points="850.5,-10 850.5,-30 870.5,-30 870.5,-10 850.5,-10"/>
<text text-anchor="start" x="874.2251" y="-15.4" font-family="sans-serif" font-size="14.00" fill="#000000"> &#160;Module</text>
<polygon fill="#80b1d3" stroke="transparent" points="936.5,-10 936.5,-30 956.5,-30 956.5,-10 936.5,-10"/>
<text text-anchor="start" x="960.2812" y="-15.4" font-family="sans-serif" font-size="14.00" fill="#000000"> &#160;Bootstrap</text>
<polygon fill="#fdb462" stroke="transparent" points="1033.5,-10 1033.5,-30 1053.5,-30 1053.5,-10 1033.5,-10"/>
<text text-anchor="start" x="1057.1732" y="-15.4" font-family="sans-serif" font-size="14.00" fill="#000000"> &#160;Providers</text>
<polygon fill="#fb8072" stroke="transparent" points="1129.5,-10 1129.5,-30 1149.5,-30 1149.5,-10 1129.5,-10"/>
<text text-anchor="start" x="1153.2258" y="-15.4" font-family="sans-serif" font-size="14.00" fill="#000000"> &#160;Exports</text>
<g id="clust1" class="cluster">
<title>cluster_AppModule</title>
<polygon fill="none" stroke="#000000" stroke-dasharray="1,5" points="922,-146 922,-344 1434,-344 1434,-146 922,-146"/>
</g>
<g id="clust2" class="cluster">
<title>cluster_AppModule_declarations</title>
<polygon fill="none" stroke="#000000" points="1304,-154 1304,-206 1426,-206 1426,-154 1304,-154"/>
</g>
<g id="clust4" class="cluster">
<title>cluster_AppModule_imports</title>
<polygon fill="none" stroke="#000000" points="930,-154 930,-206 1296,-206 1296,-154 930,-154"/>
</g>
<g id="clust6" class="cluster">
<title>cluster_AppModule_bootstrap</title>
<polygon fill="none" stroke="#000000" points="1096,-284 1096,-336 1220,-336 1220,-284 1096,-284"/>
</g>
<g id="clust14" class="cluster">
<title>cluster_CoreModule</title>
<polygon fill="none" stroke="#000000" stroke-dasharray="1,5" points="8,-70 8,-138 1009,-138 1009,-70 8,-70"/>
</g>
<g id="clust15" class="cluster">
<title>cluster_CoreModule_declarations</title>
<polygon fill="none" stroke="#000000" points="686,-78 686,-130 1001,-130 1001,-78 686,-78"/>
</g>
<g id="clust18" class="cluster">
<title>cluster_CoreModule_imports</title>
<polygon fill="none" stroke="#000000" points="530,-78 530,-130 678,-130 678,-78 530,-78"/>
</g>
<g id="clust19" class="cluster">
<title>cluster_CoreModule_exports</title>
<polygon fill="none" stroke="#000000" points="200,-78 200,-130 522,-130 522,-78 200,-78"/>
</g>
<g id="clust21" class="cluster">
<title>cluster_CoreModule_providers</title>
<polygon fill="none" stroke="#000000" points="16,-78 16,-130 192,-130 192,-78 16,-78"/>
</g>
<g id="clust28" class="cluster">
<title>cluster_ItemsModule</title>
<polygon fill="none" stroke="#000000" stroke-dasharray="1,5" points="339,-146 339,-344 914,-344 914,-146 339,-146"/>
</g>
<g id="clust29" class="cluster">
<title>cluster_ItemsModule_declarations</title>
<polygon fill="none" stroke="#000000" points="507,-154 507,-206 906,-206 906,-154 507,-154"/>
</g>
<g id="clust33" class="cluster">
<title>cluster_ItemsModule_imports</title>
<polygon fill="none" stroke="#000000" points="347,-154 347,-206 499,-206 499,-154 347,-154"/>
</g>
<g id="clust34" class="cluster">
<title>cluster_ItemsModule_exports</title>
<polygon fill="none" stroke="#000000" points="630,-284 630,-336 784,-336 784,-284 630,-284"/>
</g>
<g id="clust43" class="cluster">
<title>cluster_SharedModule</title>
<polygon fill="none" stroke="#000000" stroke-dasharray="1,5" points="1017,-70 1017,-138 1935,-138 1935,-70 1017,-70"/>
</g>
<g id="clust44" class="cluster">
<title>cluster_SharedModule_declarations</title>
<polygon fill="none" stroke="#000000" points="1417,-78 1417,-130 1927,-130 1927,-78 1417,-78"/>
</g>
<g id="clust50" class="cluster">
<title>cluster_SharedModule_exports</title>
<polygon fill="none" stroke="#000000" points="1025,-78 1025,-130 1409,-130 1409,-78 1025,-78"/>
</g>
<!-- AppComponent -->
<g id="node1" class="node">
<title>AppComponent</title>
<polygon fill="#ffffb3" stroke="#000000" points="1417.9399,-198 1312.0601,-198 1312.0601,-162 1417.9399,-162 1417.9399,-198"/>
<text text-anchor="middle" x="1365" y="-175.8" font-family="Times,serif" font-size="14.00" fill="#000000">AppComponent</text>
</g>
<!-- AppModule -->
<g id="node2" class="node">
<title>AppModule</title>
<polygon fill="#8dd3c7" stroke="#000000" points="1199.6571,-263 1196.6571,-267 1175.6571,-267 1172.6571,-263 1116.3429,-263 1116.3429,-227 1199.6571,-227 1199.6571,-263"/>
<text text-anchor="middle" x="1158" y="-240.8" font-family="Times,serif" font-size="14.00" fill="#000000">AppModule</text>
</g>
<!-- AppComponent&#45;&gt;AppModule -->
<g id="edge1" class="edge">
<title>AppComponent&#45;&gt;AppModule</title>
<path fill="none" stroke="#000000" d="M1365,-198.1061C1365,-217.3391 1365,-245 1365,-245 1365,-245 1209.8895,-245 1209.8895,-245"/>
<polygon fill="#000000" stroke="#000000" points="1209.8896,-241.5001 1199.8895,-245 1209.8895,-248.5001 1209.8896,-241.5001"/>
</g>
<!-- AppComponent  -->
<g id="node6" class="node">
<title>AppComponent </title>
<polygon fill="#80b1d3" stroke="#000000" points="1212.439,-328 1103.561,-328 1103.561,-292 1212.439,-292 1212.439,-328"/>
<text text-anchor="middle" x="1158" y="-305.8" font-family="Times,serif" font-size="14.00" fill="#000000">AppComponent </text>
</g>
<!-- AppModule&#45;&gt;AppComponent  -->
<g id="edge5" class="edge">
<title>AppModule&#45;&gt;AppComponent </title>
<path fill="none" stroke="#000000" stroke-dasharray="1,5" d="M1158,-263.1061C1158,-263.1061 1158,-281.991 1158,-281.991"/>
<polygon fill="#000000" stroke="#000000" points="1154.5001,-281.9909 1158,-291.991 1161.5001,-281.991 1154.5001,-281.9909"/>
</g>
<!-- AppRoutingModule -->
<g id="node3" class="node">
<title>AppRoutingModule</title>
<polygon fill="#8dd3c7" stroke="#000000" points="1288.2744,-198 1285.2744,-202 1264.2744,-202 1261.2744,-198 1159.7256,-198 1159.7256,-162 1288.2744,-162 1288.2744,-198"/>
<text text-anchor="middle" x="1224" y="-175.8" font-family="Times,serif" font-size="14.00" fill="#000000">AppRoutingModule</text>
</g>
<!-- AppRoutingModule&#45;&gt;AppModule -->
<g id="edge2" class="edge">
<title>AppRoutingModule&#45;&gt;AppModule</title>
<path fill="none" stroke="#000000" d="M1179.7206,-198.1061C1179.7206,-198.1061 1179.7206,-216.991 1179.7206,-216.991"/>
<polygon fill="#000000" stroke="#000000" points="1176.2206,-216.9909 1179.7206,-226.991 1183.2206,-216.991 1176.2206,-216.9909"/>
</g>
<!-- CoreModule -->
<g id="node4" class="node">
<title>CoreModule</title>
<polygon fill="#8dd3c7" stroke="#000000" points="1024.2619,-198 1021.2619,-202 1000.2619,-202 997.2619,-198 937.7381,-198 937.7381,-162 1024.2619,-162 1024.2619,-198"/>
<text text-anchor="middle" x="981" y="-175.8" font-family="Times,serif" font-size="14.00" fill="#000000">CoreModule</text>
</g>
<!-- CoreModule&#45;&gt;AppModule -->
<g id="edge3" class="edge">
<title>CoreModule&#45;&gt;AppModule</title>
<path fill="none" stroke="#000000" d="M981,-198.027C981,-214.3976 981,-236 981,-236 981,-236 1106.0535,-236 1106.0535,-236"/>
<polygon fill="#000000" stroke="#000000" points="1106.0535,-239.5001 1116.0535,-236 1106.0534,-232.5001 1106.0535,-239.5001"/>
</g>
<!-- HomeComponent  -->
<g id="node10" class="node">
<title>HomeComponent </title>
<polygon fill="#fb8072" stroke="#000000" points="513.5442,-122 394.4558,-122 394.4558,-86 513.5442,-86 513.5442,-122"/>
<text text-anchor="middle" x="454" y="-99.8" font-family="Times,serif" font-size="14.00" fill="#000000">HomeComponent </text>
</g>
<!-- CoreModule&#45;&gt;HomeComponent  -->
<g id="edge9" class="edge">
<title>CoreModule&#45;&gt;HomeComponent </title>
<path fill="none" stroke="#000000" stroke-dasharray="5,2" d="M961.2562,-161.793C961.2562,-156.4451 961.2562,-152 961.2562,-152 961.2562,-152 502.2032,-152 502.2032,-152 502.2032,-152 502.2032,-132.1467 502.2032,-132.1467"/>
<polygon fill="#000000" stroke="#000000" points="505.7033,-132.1467 502.2032,-122.1467 498.7033,-132.1468 505.7033,-132.1467"/>
</g>
<!-- PageNotFoundComponent  -->
<g id="node11" class="node">
<title>PageNotFoundComponent </title>
<polygon fill="#fb8072" stroke="#000000" points="376.3241,-122 207.6759,-122 207.6759,-86 376.3241,-86 376.3241,-122"/>
<text text-anchor="middle" x="292" y="-99.8" font-family="Times,serif" font-size="14.00" fill="#000000">PageNotFoundComponent </text>
</g>
<!-- CoreModule&#45;&gt;PageNotFoundComponent  -->
<g id="edge10" class="edge">
<title>CoreModule&#45;&gt;PageNotFoundComponent </title>
<path fill="none" stroke="#000000" stroke-dasharray="5,2" d="M953.3772,-161.8314C953.3772,-157.9541 953.3772,-155 953.3772,-155 953.3772,-155 365.7639,-155 365.7639,-155 365.7639,-155 365.7639,-132.1243 365.7639,-132.1243"/>
<polygon fill="#000000" stroke="#000000" points="369.2639,-132.1243 365.7639,-122.1243 362.2639,-132.1243 369.2639,-132.1243"/>
</g>
<!-- SharedModule -->
<g id="node5" class="node">
<title>SharedModule</title>
<polygon fill="#8dd3c7" stroke="#000000" points="1141.4231,-198 1138.4231,-202 1117.4231,-202 1114.4231,-198 1042.5769,-198 1042.5769,-162 1141.4231,-162 1141.4231,-198"/>
<text text-anchor="middle" x="1092" y="-175.8" font-family="Times,serif" font-size="14.00" fill="#000000">SharedModule</text>
</g>
<!-- SharedModule&#45;&gt;AppModule -->
<g id="edge4" class="edge">
<title>SharedModule&#45;&gt;AppModule</title>
<path fill="none" stroke="#000000" d="M1128.6915,-198.1061C1128.6915,-198.1061 1128.6915,-216.991 1128.6915,-216.991"/>
<polygon fill="#000000" stroke="#000000" points="1125.1915,-216.9909 1128.6915,-226.991 1132.1915,-216.991 1125.1915,-216.9909"/>
</g>
<!-- ItemsModule -->
<g id="node16" class="node">
<title>ItemsModule</title>
<polygon fill="#8dd3c7" stroke="#000000" points="752.1515,-263 749.1515,-267 728.1515,-267 725.1515,-263 661.8485,-263 661.8485,-227 752.1515,-227 752.1515,-263"/>
<text text-anchor="middle" x="707" y="-240.8" font-family="Times,serif" font-size="14.00" fill="#000000">ItemsModule</text>
</g>
<!-- SharedModule&#45;&gt;ItemsModule -->
<g id="edge15" class="edge">
<title>SharedModule&#45;&gt;ItemsModule</title>
<path fill="none" stroke="#000000" d="M1073.1597,-198.2921C1073.1597,-220.2057 1073.1597,-254 1073.1597,-254 1073.1597,-254 762.2656,-254 762.2656,-254"/>
<polygon fill="#000000" stroke="#000000" points="762.2656,-250.5001 752.2656,-254 762.2656,-257.5001 762.2656,-250.5001"/>
</g>
<!-- MenuComponent  -->
<g id="node23" class="node">
<title>MenuComponent </title>
<polygon fill="#fb8072" stroke="#000000" points="1150.9926,-122 1033.0074,-122 1033.0074,-86 1150.9926,-86 1150.9926,-122"/>
<text text-anchor="middle" x="1092" y="-99.8" font-family="Times,serif" font-size="14.00" fill="#000000">MenuComponent </text>
</g>
<!-- SharedModule&#45;&gt;MenuComponent  -->
<g id="edge22" class="edge">
<title>SharedModule&#45;&gt;MenuComponent </title>
<path fill="none" stroke="#000000" stroke-dasharray="5,2" d="M1056.8492,-161.9891C1056.8492,-161.9891 1056.8492,-132.145 1056.8492,-132.145"/>
<polygon fill="#000000" stroke="#000000" points="1060.3493,-132.145 1056.8492,-122.145 1053.3493,-132.1451 1060.3493,-132.145"/>
</g>
<!-- StateDirective  -->
<g id="node24" class="node">
<title>StateDirective </title>
<polygon fill="#fb8072" stroke="#000000" points="1400.5767,-122 1301.4233,-122 1301.4233,-86 1400.5767,-86 1400.5767,-122"/>
<text text-anchor="middle" x="1351" y="-99.8" font-family="Times,serif" font-size="14.00" fill="#000000">StateDirective </text>
</g>
<!-- SharedModule&#45;&gt;StateDirective  -->
<g id="edge23" class="edge">
<title>SharedModule&#45;&gt;StateDirective </title>
<path fill="none" stroke="#000000" stroke-dasharray="5,2" d="M1127.1508,-161.7181C1127.1508,-146.0522 1127.1508,-126 1127.1508,-126 1127.1508,-126 1306.7463,-126 1306.7463,-126 1306.7463,-126 1306.7463,-125.6168 1306.7463,-125.6168"/>
<polygon fill="#000000" stroke="#000000" points="1310.2466,-132.1678 1306.7463,-122.1679 1303.2466,-132.168 1310.2466,-132.1678"/>
</g>
<!-- FormComponent  -->
<g id="node25" class="node">
<title>FormComponent </title>
<polygon fill="#fb8072" stroke="#000000" points="1283.6663,-122 1168.3337,-122 1168.3337,-86 1283.6663,-86 1283.6663,-122"/>
<text text-anchor="middle" x="1226" y="-99.8" font-family="Times,serif" font-size="14.00" fill="#000000">FormComponent </text>
</g>
<!-- SharedModule&#45;&gt;FormComponent  -->
<g id="edge24" class="edge">
<title>SharedModule&#45;&gt;FormComponent </title>
<path fill="none" stroke="#000000" stroke-dasharray="5,2" d="M1141.4704,-180C1149.4636,-180 1155.1793,-180 1155.1793,-180 1155.1793,-180 1155.1793,-104 1155.1793,-104 1155.1793,-104 1158.1689,-104 1158.1689,-104"/>
<polygon fill="#000000" stroke="#000000" points="1158.169,-107.5001 1168.1689,-104 1158.1689,-100.5001 1158.169,-107.5001"/>
</g>
<!-- HomeComponent -->
<g id="node7" class="node">
<title>HomeComponent</title>
<polygon fill="#ffffb3" stroke="#000000" points="992.5451,-122 877.4549,-122 877.4549,-86 992.5451,-86 992.5451,-122"/>
<text text-anchor="middle" x="935" y="-99.8" font-family="Times,serif" font-size="14.00" fill="#000000">HomeComponent</text>
</g>
<!-- HomeComponent&#45;&gt;CoreModule -->
<g id="edge6" class="edge">
<title>HomeComponent&#45;&gt;CoreModule</title>
<path fill="none" stroke="#000000" d="M984.8931,-122.0109C984.8931,-122.0109 984.8931,-151.855 984.8931,-151.855"/>
<polygon fill="#000000" stroke="#000000" points="981.3932,-151.8549 984.8931,-161.855 988.3932,-151.855 981.3932,-151.8549"/>
</g>
<!-- PageNotFoundComponent -->
<g id="node8" class="node">
<title>PageNotFoundComponent</title>
<polygon fill="#ffffb3" stroke="#000000" points="859.8243,-122 694.1757,-122 694.1757,-86 859.8243,-86 859.8243,-122"/>
<text text-anchor="middle" x="777" y="-99.8" font-family="Times,serif" font-size="14.00" fill="#000000">PageNotFoundComponent</text>
</g>
<!-- PageNotFoundComponent&#45;&gt;CoreModule -->
<g id="edge7" class="edge">
<title>PageNotFoundComponent&#45;&gt;CoreModule</title>
<path fill="none" stroke="#000000" d="M825.9713,-122.1274C825.9713,-132.7109 825.9713,-144 825.9713,-144 825.9713,-144 977.0141,-144 977.0141,-144 977.0141,-144 977.0141,-151.5782 977.0141,-151.5782"/>
<polygon fill="#000000" stroke="#000000" points="973.5142,-151.5781 977.0141,-161.5782 980.5142,-151.5782 973.5142,-151.5781"/>
</g>
<!-- CoreRoutingModule -->
<g id="node9" class="node">
<title>CoreRoutingModule</title>
<polygon fill="#8dd3c7" stroke="#000000" points="669.8795,-122 666.8795,-126 645.8795,-126 642.8795,-122 538.1205,-122 538.1205,-86 669.8795,-86 669.8795,-122"/>
<text text-anchor="middle" x="604" y="-99.8" font-family="Times,serif" font-size="14.00" fill="#000000">CoreRoutingModule</text>
</g>
<!-- CoreRoutingModule&#45;&gt;CoreModule -->
<g id="edge8" class="edge">
<title>CoreRoutingModule&#45;&gt;CoreModule</title>
<path fill="none" stroke="#000000" d="M654.9169,-122.1505C654.9169,-134.2708 654.9169,-148 654.9169,-148 654.9169,-148 969.1351,-148 969.1351,-148 969.1351,-148 969.1351,-151.7566 969.1351,-151.7566"/>
<polygon fill="#000000" stroke="#000000" points="965.6352,-151.7566 969.1351,-161.7566 972.6352,-151.7566 965.6352,-151.7566"/>
</g>
<!-- CollectionService -->
<g id="node12" class="node">
<title>CollectionService</title>
<ellipse fill="#fdb462" stroke="#000000" cx="104" cy="-104" rx="80.4519" ry="18"/>
<text text-anchor="middle" x="104" y="-99.8" font-family="Times,serif" font-size="14.00" fill="#000000">CollectionService</text>
</g>
<!-- CollectionService&#45;&gt;CoreModule -->
<g id="edge11" class="edge">
<title>CollectionService&#45;&gt;CoreModule</title>
<path fill="none" stroke="#000000" d="M104,-122.0091C104,-138.0494 104,-159 104,-159 104,-159 945.4982,-159 945.4982,-159 945.4982,-159 945.4982,-159.292 945.4982,-159.292"/>
<polygon fill="#000000" stroke="#000000" points="941.9986,-151.9198 945.4982,-161.92 948.9986,-151.9201 941.9986,-151.9198"/>
</g>
<!-- ListItemsComponent -->
<g id="node13" class="node">
<title>ListItemsComponent</title>
<polygon fill="#ffffb3" stroke="#000000" points="774.212,-198 639.788,-198 639.788,-162 774.212,-162 774.212,-198"/>
<text text-anchor="middle" x="707" y="-175.8" font-family="Times,serif" font-size="14.00" fill="#000000">ListItemsComponent</text>
</g>
<!-- ListItemsComponent&#45;&gt;ItemsModule -->
<g id="edge12" class="edge">
<title>ListItemsComponent&#45;&gt;ItemsModule</title>
<path fill="none" stroke="#000000" d="M707,-198.1061C707,-198.1061 707,-216.991 707,-216.991"/>
<polygon fill="#000000" stroke="#000000" points="703.5001,-216.9909 707,-226.991 710.5001,-216.991 703.5001,-216.9909"/>
</g>
<!-- ItemComponent -->
<g id="node14" class="node">
<title>ItemComponent</title>
<polygon fill="#ffffb3" stroke="#000000" points="621.4888,-198 514.5112,-198 514.5112,-162 621.4888,-162 621.4888,-198"/>
<text text-anchor="middle" x="568" y="-175.8" font-family="Times,serif" font-size="14.00" fill="#000000">ItemComponent</text>
</g>
<!-- ItemComponent&#45;&gt;ItemsModule -->
<g id="edge13" class="edge">
<title>ItemComponent&#45;&gt;ItemsModule</title>
<path fill="none" stroke="#000000" d="M568,-198.0225C568,-215.3734 568,-239 568,-239 568,-239 651.4862,-239 651.4862,-239"/>
<polygon fill="#000000" stroke="#000000" points="651.4862,-242.5001 661.4862,-239 651.4862,-235.5001 651.4862,-242.5001"/>
</g>
<!-- AddComponent -->
<g id="node15" class="node">
<title>AddComponent</title>
<polygon fill="#ffffb3" stroke="#000000" points="897.9399,-198 792.0601,-198 792.0601,-162 897.9399,-162 897.9399,-198"/>
<text text-anchor="middle" x="845" y="-175.8" font-family="Times,serif" font-size="14.00" fill="#000000">AddComponent</text>
</g>
<!-- AddComponent&#45;&gt;ItemsModule -->
<g id="edge14" class="edge">
<title>AddComponent&#45;&gt;ItemsModule</title>
<path fill="none" stroke="#000000" d="M845,-198.1061C845,-217.3391 845,-245 845,-245 845,-245 762.1864,-245 762.1864,-245"/>
<polygon fill="#000000" stroke="#000000" points="762.1864,-241.5001 752.1864,-245 762.1863,-248.5001 762.1864,-241.5001"/>
</g>
<!-- ListItemsComponent  -->
<g id="node18" class="node">
<title>ListItemsComponent </title>
<polygon fill="#fb8072" stroke="#000000" points="775.7121,-328 638.2879,-328 638.2879,-292 775.7121,-292 775.7121,-328"/>
<text text-anchor="middle" x="707" y="-305.8" font-family="Times,serif" font-size="14.00" fill="#000000">ListItemsComponent </text>
</g>
<!-- ItemsModule&#45;&gt;ListItemsComponent  -->
<g id="edge17" class="edge">
<title>ItemsModule&#45;&gt;ListItemsComponent </title>
<path fill="none" stroke="#000000" stroke-dasharray="5,2" d="M707,-263.1061C707,-263.1061 707,-281.991 707,-281.991"/>
<polygon fill="#000000" stroke="#000000" points="703.5001,-281.9909 707,-291.991 710.5001,-281.991 703.5001,-281.9909"/>
</g>
<!-- ItemsRoutingModule -->
<g id="node17" class="node">
<title>ItemsRoutingModule</title>
<polygon fill="#8dd3c7" stroke="#000000" points="490.7688,-198 487.7688,-202 466.7688,-202 463.7688,-198 355.2312,-198 355.2312,-162 490.7688,-162 490.7688,-198"/>
<text text-anchor="middle" x="423" y="-175.8" font-family="Times,serif" font-size="14.00" fill="#000000">ItemsRoutingModule</text>
</g>
<!-- ItemsRoutingModule&#45;&gt;ItemsModule -->
<g id="edge16" class="edge">
<title>ItemsRoutingModule&#45;&gt;ItemsModule</title>
<path fill="none" stroke="#000000" d="M423,-198.2843C423,-219.3211 423,-251 423,-251 423,-251 651.6853,-251 651.6853,-251"/>
<polygon fill="#000000" stroke="#000000" points="651.6854,-254.5001 661.6853,-251 651.6853,-247.5001 651.6854,-254.5001"/>
</g>
<!-- MenuComponent -->
<g id="node19" class="node">
<title>MenuComponent</title>
<polygon fill="#ffffb3" stroke="#000000" points="1652.9916,-122 1539.0084,-122 1539.0084,-86 1652.9916,-86 1652.9916,-122"/>
<text text-anchor="middle" x="1596" y="-99.8" font-family="Times,serif" font-size="14.00" fill="#000000">MenuComponent</text>
</g>
<!-- MenuComponent&#45;&gt;SharedModule -->
<g id="edge18" class="edge">
<title>MenuComponent&#45;&gt;SharedModule</title>
<path fill="none" stroke="#000000" d="M1596,-122.2015C1596,-128.028 1596,-133 1596,-133 1596,-133 1084.9698,-133 1084.9698,-133 1084.9698,-133 1084.9698,-151.963 1084.9698,-151.963"/>
<polygon fill="#000000" stroke="#000000" points="1081.4699,-151.963 1084.9698,-161.963 1088.4699,-151.963 1081.4699,-151.963"/>
</g>
<!-- StateDirective -->
<g id="node20" class="node">
<title>StateDirective</title>
<polygon fill="#ffffb3" stroke="#000000" points="1521.0758,-122 1424.9242,-122 1424.9242,-86 1521.0758,-86 1521.0758,-122"/>
<text text-anchor="middle" x="1473" y="-99.8" font-family="Times,serif" font-size="14.00" fill="#000000">StateDirective</text>
</g>
<!-- StateDirective&#45;&gt;SharedModule -->
<g id="edge19" class="edge">
<title>StateDirective&#45;&gt;SharedModule</title>
<path fill="none" stroke="#000000" d="M1473,-122.0579C1473,-126.4945 1473,-130 1473,-130 1473,-130 1070.9095,-130 1070.9095,-130 1070.9095,-130 1070.9095,-151.9489 1070.9095,-151.9489"/>
<polygon fill="#000000" stroke="#000000" points="1067.4096,-151.9488 1070.9095,-161.9489 1074.4096,-151.9489 1067.4096,-151.9488"/>
</g>
<!-- FormComponent -->
<g id="node21" class="node">
<title>FormComponent</title>
<polygon fill="#ffffb3" stroke="#000000" points="1918.6667,-122 1807.3333,-122 1807.3333,-86 1918.6667,-86 1918.6667,-122"/>
<text text-anchor="middle" x="1863" y="-99.8" font-family="Times,serif" font-size="14.00" fill="#000000">FormComponent</text>
</g>
<!-- FormComponent&#45;&gt;SharedModule -->
<g id="edge20" class="edge">
<title>FormComponent&#45;&gt;SharedModule</title>
<path fill="none" stroke="#000000" d="M1863,-122.0664C1863,-131.4587 1863,-141 1863,-141 1863,-141 1113.0905,-141 1113.0905,-141 1113.0905,-141 1113.0905,-151.8701 1113.0905,-151.8701"/>
<polygon fill="#000000" stroke="#000000" points="1109.5906,-151.8701 1113.0905,-161.8701 1116.5906,-151.8701 1109.5906,-151.8701"/>
</g>
<!-- ModalComponent -->
<g id="node22" class="node">
<title>ModalComponent</title>
<polygon fill="#ffffb3" stroke="#000000" points="1788.8823,-122 1671.1177,-122 1671.1177,-86 1788.8823,-86 1788.8823,-122"/>
<text text-anchor="middle" x="1730" y="-99.8" font-family="Times,serif" font-size="14.00" fill="#000000">ModalComponent</text>
</g>
<!-- ModalComponent&#45;&gt;SharedModule -->
<g id="edge21" class="edge">
<title>ModalComponent&#45;&gt;SharedModule</title>
<path fill="none" stroke="#000000" d="M1730,-122.0449C1730,-129.749 1730,-137 1730,-137 1730,-137 1099.0302,-137 1099.0302,-137 1099.0302,-137 1099.0302,-151.5146 1099.0302,-151.5146"/>
<polygon fill="#000000" stroke="#000000" points="1095.5303,-151.5145 1099.0302,-161.5146 1102.5303,-151.5146 1095.5303,-151.5145"/>
</g>
</g>
</svg>
